# xmcd
#
# Track frame offsets:
#	150
#	19747
#	37497
#	52124
#	71282
#	89085
#	104004
#	122811
#	140222
#	154867
#	169296
#	179578
#	194335
#
# Disc length: 2718 seconds
#
# Revision: 1
# Processed by: cddbd v1.5.2PL0 Copyright (c) Steve Scherf et al.
# Submitted via: audiograbber 1.83.01
#
DISCID=cf0a9c0d
DTITLE=Richard Scott - The Richard Scott Projects
DYEAR=1900
DGENRE=
TTITLE0=My Heart Keeps On Crying
TTITLE1=Magical Dream
TTITLE2=I Need You So
TTITLE3=Only In My Dream
TTITLE4=I´m Coming Home To You
TTITLE5=The Keeper Of My Heart
TTITLE6=Every Beat Of My Heart
TTITLE7=Promise Me 
TTITLE8=Amber Ways
TTITLE9=When Your Lonely
TTITLE10=The Keeper Of My Heart
TTITLE11=Every Beat Of My Heart
TTITLE12=My World Started Crying 
EXTD=
EXTT0=
EXTT1=
EXTT2=
EXTT3=
EXTT4=
EXTT5=
EXTT6=
EXTT7=
EXTT8=
EXTT9=
EXTT10=
EXTT11=
EXTT12=
PLAYORDER=
